REM DIRINDEX 1\2,1\3,1\4,1\6,1\5\7,1\5\8
REM DIRNAME folder01,folder02,folder03,folder04,folder05,folder06,folder07,folder08
TITLE ""
FILE "DB4500_5th_1A_12.mp3" MP3
  TRACK 01 AUDIO
    TITLE "0:"
    INDEX 01 00:00:00
  TRACK 02 AUDIO
    TITLE "2:cjc114_0310"
    INDEX 01 00:00:01
  TRACK 03 AUDIO
    TITLE "0:"
    INDEX 01 00:01:15
  TRACK 04 AUDIO
    TITLE "3:cjc114_0311"
    INDEX 01 00:01:42
  TRACK 05 AUDIO
    TITLE "0:"
    INDEX 01 00:02:63
  TRACK 06 AUDIO
    TITLE "4:cjc114_0312"
    INDEX 01 00:03:17
  TRACK 07 AUDIO
    TITLE "0:"
    INDEX 01 00:05:73
  TRACK 08 AUDIO
    TITLE "2:cjc114_0313"
    INDEX 01 00:06:51
  TRACK 09 AUDIO
    TITLE "0:"
    INDEX 01 00:07:52
  TRACK 10 AUDIO
    TITLE "3:cjc114_0314"
    INDEX 01 00:08:05
  TRACK 11 AUDIO
    TITLE "0:"
    INDEX 01 00:09:06
  TRACK 12 AUDIO
    TITLE "4:cjc114_0315"
    INDEX 01 00:09:34
  TRACK 13 AUDIO
    TITLE "0:"
    INDEX 01 00:12:36
  TRACK 14 AUDIO
    TITLE "2:cjc114_0316"
    INDEX 01 00:13:14
  TRACK 15 AUDIO
    TITLE "0:"
    INDEX 01 00:14:17
  TRACK 16 AUDIO
    TITLE "3:cjc114_0317"
    INDEX 01 00:14:47
  TRACK 17 AUDIO
    TITLE "0:"
    INDEX 01 00:15:52
  TRACK 18 AUDIO
    TITLE "4:cjc114_0318"
    INDEX 01 00:16:04
  TRACK 19 AUDIO
    TITLE "0:"
    INDEX 01 00:18:29
  TRACK 20 AUDIO
    TITLE "2:cjc114_0319"
    INDEX 01 00:19:07
  TRACK 21 AUDIO
    TITLE "0:"
    INDEX 01 00:20:10
  TRACK 22 AUDIO
    TITLE "3:cjc114_0320"
    INDEX 01 00:20:39
  TRACK 23 AUDIO
    TITLE "0:"
    INDEX 01 00:21:62
  TRACK 24 AUDIO
    TITLE "4:cjc114_0321"
    INDEX 01 00:22:17
  TRACK 25 AUDIO
    TITLE "0:"
    INDEX 01 00:26:28
  TRACK 26 AUDIO
    TITLE "2:cjc114_0322"
    INDEX 01 00:27:06
  TRACK 27 AUDIO
    TITLE "0:"
    INDEX 01 00:28:13
  TRACK 28 AUDIO
    TITLE "3:cjc114_0323"
    INDEX 01 00:28:41
  TRACK 29 AUDIO
    TITLE "0:"
    INDEX 01 00:29:56
  TRACK 30 AUDIO
    TITLE "4:cjc114_0324"
    INDEX 01 00:30:08
  TRACK 31 AUDIO
    TITLE "0:"
    INDEX 01 00:33:05
  TRACK 32 AUDIO
    TITLE "2:cjc114_0325"
    INDEX 01 00:33:56
  TRACK 33 AUDIO
    TITLE "0:"
    INDEX 01 00:34:57
  TRACK 34 AUDIO
    TITLE "3:cjc114_0326"
    INDEX 01 00:35:12
  TRACK 35 AUDIO
    TITLE "0:"
    INDEX 01 00:36:54
  TRACK 36 AUDIO
    TITLE "4:cjc114_0327"
    INDEX 01 00:37:05
  TRACK 37 AUDIO
    TITLE "0:"
    INDEX 01 00:40:32
  TRACK 38 AUDIO
    TITLE "2:cjc114_0328"
    INDEX 01 00:41:08
  TRACK 39 AUDIO
    TITLE "0:"
    INDEX 01 00:42:12
  TRACK 40 AUDIO
    TITLE "3:cjc114_0329"
    INDEX 01 00:42:39
  TRACK 41 AUDIO
    TITLE "0:"
    INDEX 01 00:43:66
  TRACK 42 AUDIO
    TITLE "4:cjc114_0330"
    INDEX 01 00:44:18
  TRACK 43 AUDIO
    TITLE "0:"
    INDEX 01 00:46:56
  TRACK 44 AUDIO
    TITLE "2:cjc114_0331"
    INDEX 01 00:47:36
  TRACK 45 AUDIO
    TITLE "0:"
    INDEX 01 00:48:48
  TRACK 46 AUDIO
    TITLE "3:cjc114_0332"
    INDEX 01 00:49:00
  TRACK 47 AUDIO
    TITLE "0:"
    INDEX 01 00:51:34
  TRACK 48 AUDIO
    TITLE "4:cjc114_0333"
    INDEX 01 00:51:62
  TRACK 49 AUDIO
    TITLE "0:"
    INDEX 01 00:54:03
  TRACK 50 AUDIO
    TITLE "2:cjc114_0334"
    INDEX 01 00:54:56
  TRACK 51 AUDIO
    TITLE "0:"
    INDEX 01 00:55:55
  TRACK 52 AUDIO
    TITLE "3:cjc114_0335"
    INDEX 01 00:56:10
  TRACK 53 AUDIO
    TITLE "0:"
    INDEX 01 00:58:09
  TRACK 54 AUDIO
    TITLE "4:cjc114_0336"
    INDEX 01 00:58:36
  TRACK 55 AUDIO
    TITLE "0:"
    INDEX 01 01:01:01
  TRACK 56 AUDIO
    TITLE "2:cjc114_0337"
    INDEX 01 01:01:54
  TRACK 57 AUDIO
    TITLE "0:"
    INDEX 01 01:02:61
  TRACK 58 AUDIO
    TITLE "3:cjc114_0338"
    INDEX 01 01:03:18
  TRACK 59 AUDIO
    TITLE "0:"
    INDEX 01 01:05:46
  TRACK 60 AUDIO
    TITLE "4:cjc114_0339"
    INDEX 01 01:05:71
  TRACK 61 AUDIO
    TITLE "0:"
    INDEX 01 01:07:64
  TRACK 62 AUDIO
    TITLE "2:cjc114_0340"
    INDEX 01 01:08:42
  TRACK 63 AUDIO
    TITLE "0:"
    INDEX 01 01:09:56
  TRACK 64 AUDIO
    TITLE "3:cjc114_0341"
    INDEX 01 01:10:10
  TRACK 65 AUDIO
    TITLE "0:"
    INDEX 01 01:12:07
  TRACK 66 AUDIO
    TITLE "4:cjc114_0342"
    INDEX 01 01:12:36
  TRACK 67 AUDIO
    TITLE "0:"
    INDEX 01 01:15:11
